<svg width="1970" height="500" viewBox="0 0 1970 500" fill="none" xmlns="http://www.w3.org/2000/svg">
  <!-- Hintergrund -->
  <rect width="1970" height="500" fill="#1E1E1E"/>
  <rect x="100" width="1769" height="500" fill="#D9D9D9"/>
  
  <!-- Obere Reihe (Räume mit Stroke) -->
  <rect id="og1-Raum1" x="219.5" y="82.5" width="235" height="165" stroke="black" stroke-width="5"/>
  <rect id="og1-Raum2" x="811.5" y="82.5" width="222" height="165" stroke="black" stroke-width="5"/>
  <rect id="og1-Raum3" x="459.5" y="82.5" width="217" height="165" stroke="black" stroke-width="5"/>
  <rect id="og1-Raum4" x="1615.5" y="82.5" width="179" height="165" stroke="black" stroke-width="5"/>
  <rect id="og1-Raum5" x="1425.5" y="82.5" width="185" height="165" stroke="black" stroke-width="5"/>
  <rect id="og1-Raum8" x="1038.5" y="82.5" width="225" height="165" stroke="black" stroke-width="5"/>
  
  <!-- Untere Reihe (Räume mit Stroke) -->
  <rect id="og1-Raum6" x="1361.5" y="252.5" width="154" height="165" stroke="black" stroke-width="5"/>
  <rect id="og1-Raum7" x="1520.5" y="252.5" width="185" height="165" stroke="black" stroke-width="5"/>
  <rect id="og1-Raum9" x="1707.5" y="252.5" width="84" height="89" stroke="black" stroke-width="5"/>
  
  <!-- Graues Areal, welches als Raum zählt -->
  <rect id="og1-Raum10" x="100" y="250" width="525" height="170" fill="#B8B8B8"/>
  
  <!-- Weitere Gebäudeteile -->
  <rect x="1869" width="101" height="250" fill="#D9D9D9"/>
  <rect y="269" width="100" height="231" fill="#D9D9D9"/>
  
  <!-- Linien -->
  <line x1="758" y1="247.5" x2="1073" y2="247.5" stroke="black" stroke-width="5"/>
  <line x1="167" y1="247.5" x2="482" y2="247.5" stroke="black" stroke-width="5"/>
  
  <!-- Graues Areal, das KEIN Raum ist -->
  <rect id="og1-Raum11" x="758" y="250" width="436" height="170" fill="#B8B8B8"/>
  
  <!-- Komplexer Pfad (z. B. Schrift/Logo) -->
  <path d="M302.642 322.182H305.795L313.21 340.293H313.466L320.881 322.182H324.034V344H321.562V327.423H321.349L314.531 344H312.145L305.327 327.423H305.114V344H302.642V322.182ZM335.851 344.341C334.275 344.341 332.915 343.993 331.771 343.297C330.635 342.594 329.758 341.614 329.14 340.357C328.529 339.092 328.224 337.622 328.224 335.946C328.224 334.27 328.529 332.793 329.14 331.514C329.758 330.229 330.617 329.227 331.718 328.51C332.826 327.786 334.118 327.423 335.596 327.423C336.448 327.423 337.29 327.565 338.121 327.849C338.952 328.134 339.708 328.595 340.39 329.234C341.072 329.866 341.615 330.705 342.02 331.749C342.425 332.793 342.627 334.078 342.627 335.605V336.67H330.013V334.497H340.07C340.07 333.574 339.885 332.75 339.516 332.026C339.154 331.301 338.635 330.729 337.961 330.31C337.293 329.891 336.505 329.682 335.596 329.682C334.594 329.682 333.728 329.93 332.996 330.428C332.272 330.918 331.714 331.557 331.324 332.345C330.933 333.134 330.738 333.979 330.738 334.881V336.33C330.738 337.565 330.951 338.613 331.377 339.472C331.81 340.325 332.41 340.974 333.177 341.422C333.944 341.862 334.836 342.082 335.851 342.082C336.512 342.082 337.108 341.99 337.641 341.805C338.181 341.614 338.646 341.33 339.037 340.953C339.427 340.57 339.729 340.094 339.942 339.526L342.371 340.207C342.116 341.031 341.686 341.756 341.082 342.381C340.479 342.999 339.733 343.482 338.845 343.83C337.957 344.17 336.959 344.341 335.851 344.341ZM348.966 334.156V344H346.452V327.636H348.881V330.193H349.094C349.477 329.362 350.059 328.695 350.841 328.19C351.622 327.679 352.631 327.423 353.866 327.423C354.974 327.423 355.944 327.651 356.775 328.105C357.606 328.553 358.252 329.234 358.714 330.151C359.175 331.06 359.406 332.21 359.406 333.602V344H356.892V333.773C356.892 332.487 356.558 331.486 355.89 330.768C355.223 330.044 354.307 329.682 353.142 329.682C352.339 329.682 351.622 329.856 350.99 330.204C350.365 330.552 349.871 331.06 349.509 331.727C349.147 332.395 348.966 333.205 348.966 334.156ZM375.591 331.301L373.333 331.94C373.191 331.564 372.981 331.198 372.704 330.843C372.434 330.481 372.065 330.183 371.596 329.948C371.127 329.714 370.527 329.597 369.796 329.597C368.794 329.597 367.96 329.827 367.292 330.289C366.632 330.744 366.301 331.322 366.301 332.026C366.301 332.651 366.529 333.144 366.983 333.506C367.438 333.869 368.148 334.17 369.114 334.412L371.543 335.009C373.006 335.364 374.096 335.907 374.814 336.638C375.531 337.363 375.89 338.297 375.89 339.44C375.89 340.378 375.62 341.216 375.08 341.955C374.547 342.693 373.801 343.276 372.843 343.702C371.884 344.128 370.769 344.341 369.498 344.341C367.828 344.341 366.447 343.979 365.353 343.254C364.26 342.53 363.567 341.472 363.276 340.08L365.662 339.483C365.89 340.364 366.319 341.024 366.951 341.464C367.591 341.905 368.425 342.125 369.455 342.125C370.627 342.125 371.557 341.876 372.246 341.379C372.942 340.875 373.29 340.271 373.29 339.568C373.29 339 373.091 338.524 372.694 338.141C372.296 337.75 371.685 337.459 370.861 337.267L368.134 336.628C366.635 336.273 365.534 335.722 364.831 334.977C364.135 334.224 363.787 333.283 363.787 332.153C363.787 331.23 364.047 330.413 364.565 329.703C365.091 328.993 365.804 328.435 366.706 328.031C367.615 327.626 368.645 327.423 369.796 327.423C371.415 327.423 372.686 327.778 373.61 328.489C374.54 329.199 375.201 330.136 375.591 331.301ZM384.49 344.384C383.453 344.384 382.512 344.188 381.666 343.798C380.821 343.4 380.15 342.828 379.653 342.082C379.156 341.33 378.907 340.42 378.907 339.355C378.907 338.418 379.092 337.658 379.461 337.075C379.83 336.486 380.324 336.024 380.942 335.69C381.56 335.357 382.242 335.108 382.987 334.945C383.74 334.774 384.497 334.639 385.257 334.54C386.251 334.412 387.057 334.316 387.675 334.252C388.3 334.181 388.754 334.064 389.039 333.901C389.33 333.737 389.475 333.453 389.475 333.048V332.963C389.475 331.912 389.188 331.095 388.612 330.513C388.044 329.93 387.181 329.639 386.024 329.639C384.823 329.639 383.882 329.902 383.2 330.428C382.519 330.953 382.039 331.514 381.762 332.111L379.376 331.259C379.802 330.264 380.37 329.49 381.08 328.936C381.798 328.375 382.579 327.984 383.424 327.764C384.276 327.537 385.115 327.423 385.938 327.423C386.464 327.423 387.068 327.487 387.749 327.615C388.438 327.736 389.102 327.988 389.742 328.371C390.388 328.755 390.924 329.334 391.35 330.108C391.776 330.882 391.99 331.919 391.99 333.219V344H389.475V341.784H389.347C389.177 342.139 388.893 342.519 388.495 342.924C388.097 343.329 387.568 343.673 386.908 343.957C386.247 344.241 385.441 344.384 384.49 344.384ZM384.873 342.125C385.867 342.125 386.705 341.93 387.387 341.539C388.076 341.148 388.595 340.644 388.943 340.026C389.298 339.408 389.475 338.759 389.475 338.077V335.776C389.369 335.903 389.134 336.021 388.772 336.127C388.417 336.227 388.005 336.315 387.536 336.393C387.075 336.464 386.624 336.528 386.183 336.585C385.75 336.635 385.399 336.678 385.129 336.713C384.475 336.798 383.865 336.937 383.296 337.129C382.735 337.313 382.281 337.594 381.933 337.97C381.592 338.339 381.421 338.844 381.421 339.483C381.421 340.357 381.744 341.017 382.391 341.464C383.044 341.905 383.872 342.125 384.873 342.125ZM962.619 327.636V329.767H953.798V327.636H962.619ZM956.44 344V325.378C956.44 324.44 956.661 323.659 957.101 323.034C957.541 322.409 958.113 321.94 958.816 321.628C959.519 321.315 960.261 321.159 961.043 321.159C961.661 321.159 962.165 321.209 962.555 321.308C962.946 321.408 963.237 321.5 963.429 321.585L962.705 323.759C962.577 323.716 962.399 323.663 962.172 323.599C961.952 323.535 961.661 323.503 961.298 323.503C960.467 323.503 959.867 323.712 959.498 324.131C959.136 324.55 958.955 325.165 958.955 325.974V344H956.44ZM970.49 344.384C969.453 344.384 968.512 344.188 967.666 343.798C966.821 343.4 966.15 342.828 965.653 342.082C965.156 341.33 964.907 340.42 964.907 339.355C964.907 338.418 965.092 337.658 965.461 337.075C965.83 336.486 966.324 336.024 966.942 335.69C967.56 335.357 968.242 335.108 968.987 334.945C969.74 334.774 970.497 334.639 971.257 334.54C972.251 334.412 973.057 334.316 973.675 334.252C974.3 334.181 974.754 334.064 975.039 333.901C975.33 333.737 975.475 333.453 975.475 333.048V332.963C975.475 331.912 975.188 331.095 974.612 330.513C974.044 329.93 973.181 329.639 972.024 329.639C970.823 329.639 969.882 329.902 969.2 330.428C968.519 330.953 968.039 331.514 967.762 332.111L965.376 331.259C965.802 330.264 966.37 329.49 967.08 328.936C967.798 328.375 968.579 327.984 969.424 327.764C970.276 327.537 971.115 327.423 971.938 327.423C972.464 327.423 973.068 327.487 973.749 327.615C974.438 327.736 975.102 327.988 975.742 328.371C976.388 328.755 976.924 329.334 977.35 330.108C977.776 330.882 977.99 331.919 977.99 333.219V344H975.475V341.784H975.347C975.177 342.139 974.893 342.519 974.495 342.924C974.097 343.329 973.568 343.673 972.908 343.957C972.247 344.241 971.441 344.384 970.49 344.384ZM970.873 342.125C971.867 342.125 972.705 341.93 973.387 341.539C974.076 341.148 974.595 340.644 974.943 340.026C975.298 339.408 975.475 338.759 975.475 338.077V335.776C975.369 335.903 975.134 336.021 974.772 336.127C974.417 336.227 974.005 336.315 973.536 336.393C973.075 336.464 972.624 336.528 972.183 336.585C971.75 336.635 971.399 336.678 971.129 336.713C970.475 336.798 969.865 336.937 969.296 337.129C968.735 337.313 968.281 337.594 967.933 337.97C967.592 338.339 967.421 338.844 967.421 339.483C967.421 340.357 967.744 341.017 968.391 341.464C969.044 341.905 969.872 342.125 970.873 342.125ZM994.169 331.301L991.911 331.94C991.769 331.564 991.559 331.198 991.282 330.843C991.012 330.481 990.643 330.183 990.174 329.948C989.706 329.714 989.105 329.597 988.374 329.597C987.373 329.597 986.538 329.827 985.87 330.289C985.21 330.744 984.88 331.322 984.88 332.026C984.88 332.651 985.107 333.144 985.561 333.506C986.016 333.869 986.726 334.17 987.692 334.412L990.121 335.009C991.584 335.364 992.674 335.907 993.392 336.638C994.109 337.363 994.468 338.297 994.468 339.44C994.468 340.378 994.198 341.216 993.658 341.955C993.125 342.693 992.38 343.276 991.421 343.702C990.462 344.128 989.347 344.341 988.076 344.341C986.407 344.341 985.025 343.979 983.931 343.254C982.838 342.53 982.145 341.472 981.854 340.08L984.24 339.483C984.468 340.364 984.897 341.024 985.529 341.464C986.169 341.905 987.003 342.125 988.033 342.125C989.205 342.125 990.135 341.876 990.824 341.379C991.52 340.875 991.868 340.271 991.868 339.568C991.868 339 991.669 338.524 991.272 338.141C990.874 337.75 990.263 337.459 989.439 337.267L986.712 336.628C985.213 336.273 984.113 335.722 983.409 334.977C982.713 334.224 982.365 333.283 982.365 332.153C982.365 331.23 982.625 330.413 983.143 329.703C983.669 328.993 984.382 328.435 985.284 328.031C986.194 327.626 987.223 327.423 988.374 327.423C989.993 327.423 991.265 327.778 992.188 328.489C993.118 329.199 993.779 330.136 994.169 331.301Z" fill="black"/>
  
  <!-- Kleines Rechteck (kein Raum) -->
  <rect width="50" height="269" fill="#D9D9D9"/>
</svg>
