<svg width="1970" height="500" viewBox="0 0 1970 500" fill="none" xmlns="http://www.w3.org/2000/svg">
  <!-- Hintergrund -->
  <rect width="1970" height="500" fill="#1E1E1E"/>
  <rect x="100" width="1769" height="500" fill="#D9D9D9"/>
  
  <!-- Räume mit Stroke (als Räume gezählt) -->
  <rect id="og3-Raum1" x="1361.5" y="252.5" width="179" height="165" stroke="black" stroke-width="5"/>
  <rect id="og3-Raum2" x="1631.5" y="82.5" width="175" height="165" stroke="black" stroke-width="5"/>
  <rect id="og3-Raum3" x="1425.5" y="82.5" width="201" height="165" stroke="black" stroke-width="5"/>
  <rect id="og3-Raum4" x="1544.5" y="252.5" width="161" height="165" stroke="black" stroke-width="5"/>
  <rect id="og3-Raum5" x="970.5" y="252.5" width="222" height="165" stroke="black" stroke-width="5"/>
  <rect id="og3-Raum6" x="731.5" y="252.5" width="234" height="165" stroke="black" stroke-width="5"/>
  <rect id="og3-Raum7" x="873.5" y="82.5" width="379" height="165" stroke="black" stroke-width="5"/>
  <rect id="og3-Raum8" x="218.5" y="82.5" width="222" height="165" stroke="black" stroke-width="5"/>
  <rect id="og3-Raum9" x="391.5" y="252.5" width="205" height="165" stroke="black" stroke-width="5"/>
  <rect id="og3-Raum10" x="169.5" y="252.5" width="222" height="165" stroke="black" stroke-width="5"/>
  <rect id="og3-Raum11" x="445.5" y="82.5" width="222" height="165" stroke="black" stroke-width="5"/>
  <rect id="og3-Raum12" x="1707.5" y="252.5" width="84" height="89" stroke="black" stroke-width="5"/>
  <rect id="og3-Raum13" x="1197.5" y="246.5" width="55" height="80" stroke="black" stroke-width="5"/>
  <rect id="og3-Raum14" x="601.5" y="246.5" width="66" height="80" stroke="black" stroke-width="5"/>
  <rect id="og3-Raum15" x="777.5" y="82.5" width="94" height="165" stroke="black" stroke-width="5"/>
  
  <!-- Weitere Gebäudeteile (keine Räume) -->
  <rect x="1869" width="101" height="250" fill="#D9D9D9"/>
  <rect y="286" width="100" height="214" fill="#D9D9D9"/>
</svg>
