<svg width="1970" height="500" viewBox="0 0 1970 500" fill="none" xmlns="http://www.w3.org/2000/svg">
  <!-- Hintergrund -->
  <rect width="1970" height="500" fill="#1E1E1E"/>
  <rect x="100" width="1769" height="500" fill="#D9D9D9"/>
  
  <!-- OBEN: Räume mit y="82.5" -->
  <rect id="og5-Raum1" x="763.5" y="82.5" width="236" height="165" stroke="black" stroke-width="5"/>
  <rect id="og5-Raum2" x="1620.5" y="82.5" width="172" height="165" stroke="black" stroke-width="5"/>
  <rect id="og5-Raum5" x="1411.5" y="82.5" width="204" height="165" stroke="black" stroke-width="5"/>
  <rect id="og5-Raum8" x="1002.5" y="82.5" width="236" height="165" stroke="black" stroke-width="5"/>
  <rect id="og5-Raum9" x="444.5" y="82.5" width="209" height="165" stroke="black" stroke-width="5"/>
  <rect id="og5-Raum12" x="204.5" y="82.5" width="236" height="165" stroke="black" stroke-width="5"/>
  
  <!-- UNTEN: Räume mit y ≥ "250/252.5" -->
  <rect id="og5-Raum3" x="1347.5" y="252.5" width="180" height="165" stroke="black" stroke-width="5"/>
  <rect id="og5-Raum4" x="1532.5" y="252.5" width="187" height="165" stroke="black" stroke-width="5"/>
  <rect id="og5-Raum6" x="958.5" y="252.5" width="220" height="165" stroke="black" stroke-width="5"/>
  <rect id="og5-Raum7" x="717.5" y="252.5" width="236" height="165" stroke="black" stroke-width="5"/>
  <rect id="og5-Raum10" x="396.5" y="252.5" width="186" height="165" stroke="black" stroke-width="5"/>
  <rect id="og5-Raum11" x="155.5" y="252.5" width="236" height="165" stroke="black" stroke-width="5"/>
  <rect id="og5-Raum13" x="587.5" y="250.5" width="66" height="80" stroke="black" stroke-width="5"/>
  <rect id="og5-Raum14" x="1180.5" y="250.5" width="58" height="80" stroke="black" stroke-width="5"/>
  <rect id="og5-Raum15" x="1724.5" y="252.5" width="68" height="80" stroke="black" stroke-width="5"/>
  
  <!-- Weitere Gebäudeteile (keine Räume) -->
  <rect x="1869" width="101" height="250" fill="#D9D9D9"/>
  <rect y="290" width="100" height="210" fill="#D9D9D9"/>
</svg>
